<?xml version="1.0" standalone="no"?>
<!DOCTYPE svg PUBLIC "-//W3C//DTD SVG 20010904//EN"
 "http://www.w3.org/TR/2001/REC-SVG-20010904/DTD/svg10.dtd">
<svg version="1.0" xmlns="http://www.w3.org/2000/svg"
 width="936.000000pt" height="898.000000pt" viewBox="0 0 936.000000 898.000000"
 preserveAspectRatio="xMidYMid meet">

<g transform="translate(0.000000,898.000000) scale(0.100000,-0.100000)"
fill="#000000" stroke="none">
<path d="M2168 5329 c-22 -12 -23 -52 -3 -69 23 -19 65 2 65 33 0 40 -28 56
-62 36z"/>
<path d="M2303 5314 c-15 -6 -17 -42 -4 -62 11 -18 51 -11 65 11 20 32 -22 67
-61 51z"/>
<path d="M2430 5285 c-15 -18 -4 -52 19 -60 38 -12 68 18 56 56 -8 23 -57 26
-75 4z"/>
<path d="M2572 5278 c-7 -7 -12 -20 -12 -29 0 -43 72 -53 78 -11 6 42 -37 69
-66 40z"/>
<path d="M2000 5185 c-10 -12 -10 -21 -2 -40 14 -31 56 -34 72 -5 24 44 -38
83 -70 45z"/>
<path d="M2148 5179 c-27 -15 -23 -57 7 -71 30 -13 55 3 55 36 0 39 -28 55
-62 35z"/>
<path d="M2282 5161 c-8 -4 -12 -21 -10 -37 2 -25 7 -29 32 -29 36 0 56 27 40
53 -13 19 -43 26 -62 13z"/>
<path d="M2411 5132 c-13 -24 12 -62 40 -62 27 0 47 44 29 65 -17 21 -57 19
-69 -3z"/>
<path d="M2550 5119 c-9 -16 -8 -26 5 -45 19 -30 39 -31 59 -2 20 28 20 33 0
52 -22 22 -51 20 -64 -5z"/>
<path d="M2692 5108 c-29 -29 -3 -72 40 -66 19 2 23 9 23 38 0 30 -4 35 -25
38 -14 2 -31 -3 -38 -10z"/>
<path d="M1850 5055 c-26 -32 13 -81 48 -59 34 22 22 74 -18 74 -10 0 -23 -7
-30 -15z"/>
<path d="M1981 5036 c-14 -17 -5 -43 20 -56 26 -15 37 -12 49 10 23 43 -38 84
-69 46z"/>
<path d="M2138 5033 c-36 -9 -33 -67 3 -78 26 -9 49 11 49 41 0 25 -25 43 -52
37z"/>
<path d="M2262 5008 c-27 -27 -6 -68 34 -68 22 0 34 17 34 50 0 28 -46 40 -68
18z"/>
<path d="M2397 4993 c-12 -12 -7 -50 8 -63 22 -18 49 -8 59 23 8 22 7 30 -4
37 -17 11 -54 13 -63 3z"/>
<path d="M2535 4970 c-17 -18 -17 -21 -1 -45 20 -30 27 -31 57 -6 21 16 22 22
11 45 -14 31 -42 34 -67 6z"/>
<path d="M2672 4958 c-27 -27 -6 -68 35 -68 27 0 38 20 29 55 -7 27 -42 35
-64 13z"/>
<path d="M2807 4944 c-16 -17 -6 -55 18 -66 32 -14 57 5 53 41 -2 21 -9 27
-33 29 -17 2 -34 0 -38 -4z"/>
<path d="M1830 4905 c-22 -26 3 -67 38 -63 21 2 28 9 30 32 5 43 -41 64 -68
31z"/>
<path d="M1982 4899 c-18 -7 -23 -15 -20 -35 7 -56 69 -57 76 -1 4 32 -23 49
-56 36z"/>
<path d="M2110 4875 c-7 -9 -10 -25 -6 -41 5 -20 12 -25 33 -22 14 2 31 11 37
21 9 15 7 22 -13 38 -28 23 -35 24 -51 4z"/>
<path d="M1492 4850 c0 -14 2 -19 5 -12 2 6 2 18 0 25 -3 6 -5 1 -5 -13z"/>
<path d="M2242 4858 c-18 -18 -15 -42 7 -62 34 -31 83 13 61 55 -12 21 -50 25
-68 7z"/>
<path d="M2377 4843 c-11 -11 -8 -48 5 -61 30 -30 75 0 64 43 -5 19 -13 25
-35 25 -15 0 -31 -3 -34 -7z"/>
<path d="M2524 4832 c-22 -15 -24 -42 -4 -62 24 -24 34 -25 54 -4 22 21 20 51
-3 64 -23 12 -32 12 -47 2z"/>
<path d="M1476 4756 c-20 -159 27 -341 129 -501 53 -83 184 -211 285 -277 337
-223 810 -229 1136 -17 43 28 102 75 133 104 85 80 250 153 441 195 83 19 148
18 118 -1 -10 -7 -10 -11 -1 -17 6 -4 17 -20 23 -36 9 -25 8 -28 -7 -22 -14 6
-13 2 5 -17 12 -13 22 -30 22 -38 0 -12 2 -12 11 1 8 11 9 8 5 -15 -5 -22 -4
-26 4 -15 8 12 10 11 10 -7 0 -12 -5 -25 -10 -28 -6 -4 -7 -11 -4 -17 4 -7 9
-6 15 3 6 10 13 7 29 -12 16 -19 19 -20 12 -4 -65 138 -83 187 -93 255 -19
121 -22 192 -8 201 10 6 7 8 -8 6 -12 0 -19 -6 -16 -12 3 -5 0 -4 -8 3 -7 6
-20 12 -28 12 -14 0 -14 -1 -1 -10 12 -8 12 -10 -5 -11 l-20 0 20 -9 c18 -8
18 -9 2 -9 -11 -1 -15 -6 -11 -12 4 -8 -1 -9 -16 -4 -13 4 -20 3 -17 -2 5 -8
-82 -49 -272 -130 -11 -5 -13 -2 -6 13 41 96 65 207 65 306 l0 57 -52 39 c-79
58 -76 57 -66 4 35 -186 -42 -419 -187 -567 -38 -39 -95 -87 -126 -108 -209
-138 -490 -184 -739 -121 -166 42 -300 112 -414 218 -21 20 -43 33 -49 29 -5
-3 -8 -2 -4 3 3 5 -8 25 -25 44 -16 19 -26 28 -22 20 4 -8 14 -23 23 -33 12
-15 13 -20 2 -26 -10 -6 -9 -10 4 -15 11 -4 15 -13 12 -25 -3 -12 1 -22 11
-26 8 -3 12 -8 9 -12 -4 -3 -2 -12 4 -20 7 -7 7 -13 2 -13 -12 0 -118 110
-155 160 -52 70 -103 183 -129 280 -6 25 -15 104 -18 175 l-7 130 -8 -69z
m2017 -426 c6 0 -29 -27 -79 -61 -49 -33 -99 -70 -111 -82 -31 -28 -29 -19 12
49 30 50 43 62 88 81 28 12 58 20 65 18 8 -3 19 -5 25 -5z"/>
<path d="M2650 4805 c-10 -12 -10 -21 -2 -40 14 -31 56 -34 72 -5 24 44 -38
83 -70 45z"/>
<path d="M2803 4797 c-25 -11 -29 -28 -13 -58 20 -37 70 -17 70 28 0 29 -28
44 -57 30z"/>
<path d="M3620 4720 c49 -55 68 -70 90 -70 31 0 50 30 28 43 -45 27 -172 97
-176 97 -2 0 24 -31 58 -70z"/>
<path d="M1811 4751 c-14 -25 -5 -31 41 -31 24 0 38 5 38 13 0 37 -62 51 -79
18z"/>
<path d="M1946 4733 c-8 -20 10 -33 45 -33 33 0 41 8 28 31 -13 24 -64 26 -73
2z"/>
<path d="M2092 4728 c-21 -21 -13 -36 24 -40 40 -5 55 12 34 37 -15 18 -42 19
-58 3z"/>
<path d="M2227 4713 c-4 -3 -7 -14 -7 -23 0 -12 11 -17 40 -18 42 -3 53 11 28
36 -13 13 -50 16 -61 5z"/>
<path d="M2361 4686 c-15 -17 -10 -20 42 -29 24 -4 28 -1 25 17 -4 26 -49 34
-67 12z"/>
<path d="M2508 4679 c-33 -19 -21 -39 22 -39 44 0 55 21 21 40 -23 12 -22 12
-43 -1z"/>
<path d="M2633 4655 c-7 -20 -5 -22 40 -30 28 -6 37 -4 37 7 0 35 -65 54 -77
23z"/>
<path d="M2771 4637 c-15 -19 -4 -27 41 -27 36 0 38 2 28 20 -12 23 -52 27
-69 7z"/>
<path d="M5432 4150 c0 -14 2 -19 5 -12 2 6 2 18 0 25 -3 6 -5 1 -5 -13z"/>
<path d="M6210 4114 c-41 -7 -100 -22 -130 -33 l-55 -20 69 0 c49 -1 98 8 175
30 58 18 108 33 110 35 10 9 -100 1 -169 -12z"/>
<path d="M5416 4105 c-9 -26 -7 -32 5 -12 6 10 9 21 6 23 -2 3 -7 -2 -11 -11z"/>
<path d="M5365 3999 c-4 -6 -5 -12 -2 -15 2 -3 7 2 10 11 7 17 1 20 -8 4z"/>
<path d="M6844 3939 c4 -13 9 -57 13 -97 l6 -73 58 -44 c64 -50 143 -135 192
-207 18 -26 35 -48 38 -48 17 0 89 63 89 78 0 26 -105 182 -184 275 -73 84
-129 125 -184 134 -33 6 -35 5 -28 -18z"/>
<path d="M6009 3743 c-39 -37 -92 -96 -116 -131 -40 -55 -45 -68 -40 -100 6
-41 114 -261 150 -305 20 -25 25 -27 54 -17 17 6 111 28 209 48 176 37 178 37
185 66 5 16 25 108 45 204 l36 175 -24 19 c-52 42 -231 119 -244 105 -3 -3 11
-10 31 -17 20 -7 34 -14 31 -17 -3 -3 3 -14 13 -24 28 -30 28 -123 -1 -181
-22 -44 -68 -86 -89 -80 -5 1 -9 -2 -9 -8 0 -21 -63 -42 -108 -36 -70 9 -126
51 -152 114 -12 29 -20 56 -16 59 3 3 -2 12 -12 20 -16 12 -16 13 1 7 9 -3 17
-2 17 4 0 6 -6 12 -12 14 -7 3 19 36 60 76 39 40 70 72 67 72 -3 0 -37 -30
-76 -67z"/>
<path d="M1340 3676 c0 -2 7 -7 16 -10 8 -3 12 -2 9 4 -6 10 -25 14 -25 6z"/>
<path d="M5540 3610 c-51 -101 -74 -200 -74 -330 -1 -97 1 -115 15 -118 12 -2
16 8 18 55 3 83 26 184 53 234 19 36 23 59 23 131 0 49 -1 88 -2 88 -2 0 -16
-27 -33 -60z"/>
<path d="M2530 3437 c0 -5 -4 -6 -9 -2 -5 3 -12 1 -16 -4 -3 -5 -14 -8 -24 -6
-10 2 -24 -1 -32 -5 -11 -7 -9 -14 10 -34 l23 -25 -23 5 c-21 4 -22 3 -4 -4
16 -7 31 0 73 36 28 24 52 46 52 47 0 2 -11 2 -25 1 -14 0 -25 -5 -25 -9z"/>
<path d="M1988 3423 c7 -3 16 -2 19 1 4 3 -2 6 -13 5 -11 0 -14 -3 -6 -6z"/>
<path d="M2050 3420 c-9 -6 -10 -10 -3 -10 6 0 15 5 18 10 8 12 4 12 -15 0z"/>
<path d="M2075 3410 c-4 -6 3 -10 14 -10 25 0 27 6 6 13 -8 4 -17 2 -20 -3z"/>
<path d="M2158 3393 c6 -2 18 -2 25 0 6 3 1 5 -13 5 -14 0 -19 -2 -12 -5z"/>
<path d="M2218 3388 c6 -6 18 -8 28 -6 14 3 12 5 -9 10 -19 3 -25 2 -19 -4z"/>
<path d="M2318 3373 c7 -3 16 -2 19 1 4 3 -2 6 -13 5 -11 0 -14 -3 -6 -6z"/>
<path d="M2388 3363 c6 -2 18 -2 25 0 6 3 1 5 -13 5 -14 0 -19 -2 -12 -5z"/>
<path d="M7040 3050 c-62 -32 -145 -58 -234 -74 l-59 -11 -12 -55 c-14 -66
-53 -175 -94 -261 -29 -60 -30 -65 -13 -77 26 -21 90 -47 164 -67 58 -15 72
-16 100 -4 47 19 199 173 237 239 27 48 31 65 31 128 0 47 -7 92 -20 129 -29
84 -35 87 -100 53z"/>
<path d="M5656 2770 c17 -80 47 -161 73 -196 39 -55 139 -129 238 -177 75 -35
86 -38 112 -28 34 15 69 51 101 105 l23 39 -24 19 c-99 78 -169 142 -214 198
l-54 65 -130 0 -130 0 5 -25z"/>
<path d="M5052 2498 c0 -34 4 -48 13 -48 7 0 16 -6 19 -12 3 -7 4 -2 2 12 -2
14 -11 41 -19 60 l-14 35 -1 -47z"/>
<path d="M1942 2450 c0 -14 2 -19 5 -12 2 6 2 18 0 25 -3 6 -5 1 -5 -13z"/>
<path d="M1951 2374 c0 -11 3 -14 6 -6 3 7 2 16 -1 19 -3 4 -6 -2 -5 -13z"/>
<path d="M1986 2277 c3 -10 9 -15 12 -12 3 3 0 11 -7 18 -10 9 -11 8 -5 -6z"/>
<path d="M2040 2187 c0 -2 14 -16 32 -33 31 -29 31 -29 12 -2 -16 23 -44 45
-44 35z"/>
<path d="M2213 2035 c0 -8 4 -12 9 -9 5 3 6 10 3 15 -9 13 -12 11 -12 -6z"/>
</g>
</svg>
